# xmcd CD database file
# Copyright (C) 1993-1998 Ti Kan
# 
# Track frame offsets:
#     150
#     11377
#     25962
#     39237
#     53902
#     64917
#     78442
#     93212
#     105767
#     122845
#     137617
#     150072
# 
# Disc length: 2142 seconds
# 
# Revision: 1
# Processed by: cddbd v1.4b41PL1 Copyright (c) Steve Scherf et al.
# Submitted via: DiscPlay 4.0.4
# 
DISCID=7f085c0c
DTITLE=Varios - Rancheras 5 Mano a mano Homenaje a Juan Gabriel y Rocio Durc
DTITLE=al
DYEAR=1900
DGENRE=
TTITLE0=No vales la pena
TTITLE1=La farsante
TTITLE2=Lagrimas y lluvia
TTITLE3=Te voy a olvidar
TTITLE4=Caray
TTITLE5=Amarga navidad
TTITLE6=Diferentes
TTITLE7=Que sacrificio
TTITLE8=Mi destino fue quererte
TTITLE9=Celosa
TTITLE10=Se me olvido otra vez
TTITLE11=Los laureles
EXTD=
EXTT0=
EXTT1=
EXTT2=
EXTT3=
EXTT4=
EXTT5=
EXTT6=
EXTT7=
EXTT8=
EXTT9=
EXTT10=
EXTT11=
PLAYORDER=
